<?xml version="1.0" standalone="no"?>
<svg xmlns:xlink="http://www.w3.org/1999/xlink" id="wave" preserveAspectRatio="none" style="transform:rotate(0deg); transition: 0.3s" viewBox="0 0 1440 490" version="1.1" xmlns="http://www.w3.org/2000/svg"><defs><linearGradient id="sw-gradient-0" x1="0" x2="0" y1="1" y2="0"><stop stop-color="rgba(0, 203, 169, 1)" offset="0%"/><stop stop-color="rgba(0, 204, 155.62, 1)" offset="100%"/></linearGradient></defs><path style="transform:translate(0, 0px); opacity:1" fill="url(#sw-gradient-0)" d="M0,343L26.7,310.3C53.3,278,107,212,160,220.5C213.3,229,267,310,320,294C373.3,278,427,163,480,138.8C533.3,114,587,180,640,228.7C693.3,278,747,310,800,310.3C853.3,310,907,278,960,261.3C1013.3,245,1067,245,1120,269.5C1173.3,294,1227,343,1280,326.7C1333.3,310,1387,229,1440,220.5C1493.3,212,1547,278,1600,318.5C1653.3,359,1707,376,1760,343C1813.3,310,1867,229,1920,171.5C1973.3,114,2027,82,2080,73.5C2133.3,65,2187,82,2240,114.3C2293.3,147,2347,196,2400,212.3C2453.3,229,2507,212,2560,236.8C2613.3,261,2667,327,2720,302.2C2773.3,278,2827,163,2880,138.8C2933.3,114,2987,180,3040,179.7C3093.3,180,3147,114,3200,114.3C3253.3,114,3307,180,3360,196C3413.3,212,3467,180,3520,155.2C3573.3,131,3627,114,3680,163.3C3733.3,212,3787,327,3813,383.8L3840,441L3840,490L3813.3,490C3786.7,490,3733,490,3680,490C3626.7,490,3573,490,3520,490C3466.7,490,3413,490,3360,490C3306.7,490,3253,490,3200,490C3146.7,490,3093,490,3040,490C2986.7,490,2933,490,2880,490C2826.7,490,2773,490,2720,490C2666.7,490,2613,490,2560,490C2506.7,490,2453,490,2400,490C2346.7,490,2293,490,2240,490C2186.7,490,2133,490,2080,490C2026.7,490,1973,490,1920,490C1866.7,490,1813,490,1760,490C1706.7,490,1653,490,1600,490C1546.7,490,1493,490,1440,490C1386.7,490,1333,490,1280,490C1226.7,490,1173,490,1120,490C1066.7,490,1013,490,960,490C906.7,490,853,490,800,490C746.7,490,693,490,640,490C586.7,490,533,490,480,490C426.7,490,373,490,320,490C266.7,490,213,490,160,490C106.7,490,53,490,27,490L0,490Z"/></svg>